<?xml version="1.0" encoding="utf-8"?>
<!-- Generator: Adobe Illustrator 27.5.0, SVG Export Plug-In . SVG Version: 6.00 Build 0)  -->
<svg version="1.1" id="Layer_1" xmlns="http://www.w3.org/2000/svg" xmlns:xlink="http://www.w3.org/1999/xlink" x="0px" y="0px"
	 viewBox="0 0 558 450" style="enable-background:new 0 0 558 450;" xml:space="preserve">
<rect style="fill:#FFFFFF;" width="558" height="450"/>
<g>
	<g>
		<g>
			<polygon style="fill:#BDAF9B;" points="514.399,305.503 275.57,425 43.601,308.925 43.601,300.528 514.401,297.106 			"/>
			<polygon style="fill:#FFFAF2;" points="514.399,297.106 275.57,416.603 43.601,300.528 282.43,181.031 			"/>
			<polygon style="fill:#CFC2AF;" points="43.601,308.925 43.601,300.528 275.57,416.603 275.57,425 			"/>
		</g>
		<g>
			<polygon style="fill:#EBC6B7;" points="282.43,181.013 43.599,300.528 43.599,144.515 282.43,25 			"/>
			<polygon style="fill:#F2D8CD;" points="514.401,297.106 282.43,181.013 282.43,25 514.401,141.093 			"/>
			<g>
				<polygon style="fill:#D1B0A3;" points="282.43,189.189 51.712,304.885 51.712,148.872 282.43,33.176 				"/>
				<polygon style="fill:#E3CBC1;" points="506.414,301.463 282.43,189.189 282.43,33.176 506.414,145.45 				"/>
			</g>
			<polygon style="fill:#D1BBB2;" points="506.414,301.463 514.399,297.106 514.401,141.093 506.414,145.45 			"/>
			<polygon style="fill:#B89B8F;" points="43.599,144.515 51.712,148.872 51.712,304.885 43.601,300.528 			"/>
		</g>
	</g>
	<path style="fill:#969696;" d="M480.941,184.648L480.941,184.648L480.941,184.648z"/>
	<path style="fill:#969696;" d="M483.786,301.724L483.786,301.724L483.786,301.724z"/>
	<path style="fill:#969696;" d="M483.694,183.465L483.694,183.465L483.694,183.465z"/>
	<path style="fill:#969696;" d="M486.538,300.542L486.538,300.542L486.538,300.542z"/>
	<g>
		<path style="opacity:0.1;" d="M81.222,309.625l37.946-8.571l19.75-5.31l12.544,6.147l-13.479,4.914l0.144,1.865l23.922-8.608
			l29.052-8.215c1.482-0.419,1.715-2.421,0.37-3.17l-0.027-0.015c-0.356-0.198-0.771-0.264-1.172-0.186l-15.083,2.949
			c-1.571,0.307-3.199-0.013-4.537-0.891l-15.411-10.114l-10.839,1.97l-6.872,4.931l-12.389-9.246l-6.268,20.743l6.497-21.502
			l12.328-9.715l6.416,4.77l-1.819-6.935l9.738-10.857l-6.55-3.376l-66.802,30.316L81.222,309.625z"/>
		<g>
			<g>
				<g>
					<polygon style="fill:#B8CBD4;" points="60.864,263.716 83.654,315.11 86.719,313.351 86.719,276.625 					"/>
					<polygon style="fill:#B8CBD4;" points="156.945,245.482 83.654,282.059 57.799,269.131 57.799,265.146 131.09,232.555 
						156.945,241.497 					"/>
					<polygon style="fill:#F0F5F7;" points="156.945,241.497 83.654,278.074 57.799,265.146 131.09,228.57 					"/>
					<polygon style="fill:#D3DEE3;" points="57.799,265.146 57.799,302.202 83.654,315.11 83.654,278.055 					"/>
				</g>
			</g>
			<g>
				<g>
					<g>
						<path style="fill:#7E9DAB;" d="M119.367,301.078c-0.066,0-0.133-0.008-0.199-0.025c-0.443-0.11-0.712-0.557-0.602-1
							l5.87-23.663c0.11-0.442,0.556-0.712,1-0.602c0.442,0.11,0.712,0.558,0.602,1l-5.87,23.664
							C120.075,300.827,119.738,301.078,119.367,301.078z"/>
					</g>
					<g>
						<path style="fill:#7E9DAB;" d="M138.127,308.669c-0.451,0-0.82-0.363-0.825-0.816l-0.288-24.536
							c-0.005-0.456,0.36-0.83,0.816-0.835c0.003,0,0.007,0,0.01,0c0.451,0,0.82,0.363,0.825,0.816l0.288,24.536
							c0.005,0.456-0.36,0.83-0.816,0.835C138.134,308.669,138.13,308.669,138.127,308.669z"/>
					</g>
				</g>
				<g>
					<g>
						<path style="fill:#7E9DAB;" d="M158.764,299.579c-0.387,0-0.732-0.273-0.809-0.668l-4.688-24.038
							c-0.087-0.448,0.205-0.881,0.652-0.968c0.446-0.088,0.881,0.204,0.968,0.652l4.688,24.038
							c0.087,0.447-0.204,0.881-0.652,0.968C158.87,299.574,158.817,299.579,158.764,299.579z"/>
					</g>
				</g>
				<g>
					<path style="fill:#DAE5EB;" d="M158.439,278.149l-19.628,9.814l-17.09-8.577c-0.998-0.499-1.398-2.993-0.4-3.491l16.378-6.919
						c0.774-0.387,1.684-0.387,2.458,0L158.439,278.149z"/>
				</g>
				<g>
					<path style="fill:#F8FDFF;" d="M159.906,277.506l-19.628,9.814l-18.558-9.31c-0.998-0.499-0.998-1.922,0-2.421l15.977-7.989
						c0.774-0.387,1.684-0.387,2.458,0L159.906,277.506z"/>
				</g>
				<g>
					<path style="fill:#DAE5EB;" d="M159.463,277.045l-20.545,10.275l3.377-21.885c0.179-1.231,0.948-2.296,2.06-2.852l15.826-7.915
						c1.242-0.621,3.648,0.64,3.448,2.014L159.463,277.045z"/>
				</g>
				<g>
					<path style="fill:#B8CBD4;" d="M158.676,278.701l-18.52,9.262l3.377-21.885c0.179-1.231,0.948-2.296,2.06-2.852l15.826-7.915
						c1.242-0.621,2.671,0.41,2.471,1.785l-2.864,18.351C160.823,276.851,159.945,278.067,158.676,278.701z"/>
				</g>
				<g>
					<path style="fill:#DAE5EB;" d="M138.811,287.963c0,0,0.902,0.551,1.345,0l0.346-2.384l-1.264-0.465
						c0,0-0.525,1.499-3.258,0.056L138.811,287.963z"/>
				</g>
			</g>
		</g>
		<polygon style="opacity:0.73;fill:#FFFFFF;" points="73.741,260.438 98.562,270.672 124.664,257.617 100.435,247.512 		"/>
		<polygon style="opacity:0.73;fill:#FFFFFF;" points="103.617,245.489 128.438,255.723 152.46,243.723 128.231,233.618 		"/>
	</g>
	<g>
		<g>
			<polygon style="opacity:0.1;" points="189.145,252.952 243.685,249.12 299.047,221.044 253.239,206.084 			"/>
			<g>
				<g>
					<g>
						<g>
							<g>
								<polygon style="fill:#B8CBD4;" points="222.537,236.255 255.928,219.561 255.928,201.283 222.537,217.977 								"/>
							</g>
							<g>
								<path style="fill:#A1B3BA;" d="M223.37,218.492l31.725-15.861v16.414l-31.725,15.861V218.492z M254.857,203.016
									l-31.249,15.623v15.883l31.249-15.623V203.016z"/>
							</g>
							<g>
								<polygon style="fill:#F0F5F7;" points="222.537,217.982 255.928,201.293 238.7,192.9 205.308,209.59 								"/>
							</g>
							<g>
								<polygon style="fill:#9E9E9E;" points="205.308,227.865 222.537,236.259 222.537,217.982 205.308,209.587 								"/>
							</g>
						</g>
						<g>
							<g>
								<polygon style="fill:#FFFFFF;" points="236.341,215.916 241.172,213.486 241.172,211.281 236.341,213.71 								"/>
							</g>
							<g>
								<g>
									<polygon style="fill:#868C8F;" points="240.441,211.941 240.806,211.758 240.806,213.374 236.706,215.439 236.706,215.031 
										240.441,213.148 									"/>
								</g>
								<g>
									<polygon style="fill:#5C6266;" points="240.441,211.941 240.441,213.148 236.706,215.031 236.706,213.823 									"/>
								</g>
							</g>
						</g>
					</g>
					<g>
						<g>
							<g>
								<polygon style="fill:#B8CBD4;" points="222.537,217.684 255.928,200.989 255.928,182.712 222.537,199.406 								"/>
							</g>
							<g>
								<path style="fill:#A1B3BA;" d="M223.37,199.921l31.725-15.861v16.414l-31.725,15.861V199.921z M254.857,184.445
									l-31.249,15.623v15.883l31.249-15.623V184.445z"/>
							</g>
							<g>
								<polygon style="fill:#F0F5F7;" points="222.537,199.411 255.928,182.721 238.7,174.329 205.308,191.018 								"/>
							</g>
							<g>
								<polygon style="fill:#9E9E9E;" points="205.308,209.294 222.537,217.688 222.537,199.41 205.308,191.016 								"/>
							</g>
						</g>
						<g>
							<g>
								<polygon style="fill:#FFFFFF;" points="236.341,197.345 241.172,194.915 241.172,192.709 236.341,195.139 								"/>
							</g>
							<g>
								<g>
									<polygon style="fill:#868C8F;" points="240.441,193.369 240.806,193.187 240.806,194.803 236.706,196.867 236.706,196.459 
										240.441,194.577 									"/>
								</g>
								<g>
									<g>
										<g>
											<polygon style="fill:#5C6266;" points="240.441,193.369 240.441,194.577 236.706,196.459 236.706,195.251 											"/>
										</g>
									</g>
								</g>
							</g>
						</g>
					</g>
				</g>
				<g>
					<g>
						<g>
							<g>
								<polygon style="fill:#B8CBD4;" points="189.145,252.947 222.537,236.253 222.537,217.975 189.145,234.67 								"/>
							</g>
							<g>
								<path style="fill:#A1B3BA;" d="M189.978,235.185l31.725-15.861v16.414l-31.725,15.861V235.185z M221.466,219.709
									l-31.249,15.623v15.883l31.249-15.623V219.709z"/>
							</g>
							<g>
								<polygon style="fill:#F0F5F7;" points="189.145,234.675 222.537,217.985 205.308,209.593 171.917,226.282 								"/>
							</g>
							<g>
								<polygon style="fill:#D3DEE3;" points="171.916,244.558 189.145,252.952 189.145,234.674 171.916,226.28 								"/>
							</g>
						</g>
						<g>
							<g>
								<polygon style="fill:#FFFFFF;" points="202.95,232.609 207.78,230.179 207.78,227.973 202.95,230.403 								"/>
							</g>
							<g>
								<g>
									<polygon style="fill:#868C8F;" points="207.05,228.633 207.415,228.451 207.415,230.066 203.315,232.131 203.315,231.723 
										207.05,229.841 									"/>
								</g>
								<g>
									<polygon style="fill:#5C6266;" points="207.05,228.633 207.05,229.841 203.315,231.723 203.315,230.515 									"/>
								</g>
							</g>
						</g>
					</g>
					<g>
						<g>
							<g>
								<polygon style="fill:#B8CBD4;" points="189.145,234.376 222.537,217.682 222.537,199.404 189.145,216.098 								"/>
							</g>
							<g>
								<path style="fill:#A1B3BA;" d="M221.704,200.752v16.414l-31.725,15.861v-16.415L221.704,200.752z M221.466,201.137
									l-31.249,15.623v15.883l31.249-15.623V201.137z"/>
							</g>
							<g>
								<polygon style="fill:#F0F5F7;" points="189.145,216.103 222.537,199.414 205.308,191.021 171.917,207.711 								"/>
							</g>
							<g>
								<polygon style="fill:#D3DEE3;" points="171.916,225.986 189.145,234.38 189.145,216.102 171.916,207.708 								"/>
							</g>
						</g>
						<g>
							<g>
								<polygon style="fill:#FFFFFF;" points="202.95,214.037 207.78,211.607 207.78,209.401 202.95,211.831 								"/>
							</g>
							<g>
								<g>
									<polygon style="fill:#868C8F;" points="207.05,210.062 207.415,209.879 207.415,211.495 203.315,213.56 203.315,213.152 
										207.05,211.269 									"/>
								</g>
								<g>
									<g>
										<g>
											<polygon style="fill:#5C6266;" points="207.05,210.062 207.05,211.269 203.315,213.152 203.315,211.944 											"/>
										</g>
									</g>
								</g>
							</g>
						</g>
					</g>
				</g>
			</g>
		</g>
		<g>
			<g>
				<polygon style="fill:#A8D9F9;" points="168.814,189.699 241.929,153.171 241.929,110.261 168.814,146.789 				"/>
				<polygon style="fill:#7FC0EB;" points="168.814,146.789 166.652,145.852 166.652,188.762 168.814,189.699 				"/>
				<polygon style="fill:#D9EFFF;" points="241.929,110.261 239.767,109.324 166.652,145.852 168.814,146.789 				"/>
			</g>
			<polygon style="opacity:0.1;" points="168.814,189.699 185.069,201.137 216.081,202.631 255.928,182.721 238.7,174.329 
				238.7,154.629 			"/>
			<polygon style="fill:#93CAED;" points="241.929,110.261 178.346,184.876 241.929,153.171 			"/>
		</g>
	</g>
	<g>
		<polygon style="opacity:0.08;" points="353.966,334.515 398.415,337.455 473.586,312.152 489.379,309.625 506.414,301.463 
			449.069,277.315 		"/>
		<g>
			<g>
				<g>
					<g>
						<g>
							<g>
								<polygon style="fill:#D3DEE3;" points="449.325,289.421 378.074,253.971 378.074,236.95 449.325,272.4 								"/>
							</g>
							<g>
								<polygon style="fill:#F0F5F7;" points="449.325,272.405 378.074,236.959 394.118,229.143 465.369,264.59 								"/>
							</g>
							<g>
								<polygon style="fill:#BABABA;" points="465.369,281.608 449.325,289.425 449.325,272.404 465.369,264.587 								"/>
							</g>
						</g>
					</g>
					<g>
						<g>
							<g>
								<polygon style="fill:#D3DEE3;" points="480.165,304.845 449.069,289.298 449.069,272.277 480.165,287.823 								"/>
							</g>
							<g>
								<path style="fill:#A1B3BA;" d="M479.389,303.589l-29.544-14.771v-15.286l29.544,14.77V303.589z M450.067,288.681
									l29.101,14.549V288.44l-29.101-14.549V288.681z"/>
							</g>
							<g>
								<polygon style="fill:#F0F5F7;" points="480.165,287.828 449.069,272.286 465.113,264.471 496.209,280.013 								"/>
							</g>
							<g>
								<polygon style="fill:#A1B3BA;" points="496.209,297.031 480.165,304.848 480.165,287.827 496.209,280.01 								"/>
							</g>
						</g>
						<g>
							<g>
								<polygon style="fill:#FFFFFF;" points="467.31,285.904 462.812,283.641 462.812,281.587 467.31,283.85 								"/>
							</g>
							<g>
								<g>
									<polygon style="fill:#868C8F;" points="463.492,282.202 463.152,282.032 463.152,283.536 466.97,285.459 466.97,285.079 
										463.492,283.327 									"/>
								</g>
								<g>
									<g>
										<polygon style="fill:#5C6266;" points="463.492,282.202 463.492,283.327 466.97,285.079 466.97,283.955 										"/>
									</g>
								</g>
							</g>
						</g>
					</g>
					<polygon style="opacity:0.08;" points="446.612,271.05 464.061,291.643 480.165,301.463 480.165,304.848 446.631,288.173 
						446.631,279.527 395.385,252.65 409.034,252.65 					"/>
					<g>
						<g>
							<g>
								<polygon style="fill:#D3DEE3;" points="353.984,334.514 291.025,303.027 291.025,294.381 353.984,325.868 								"/>
								<polygon style="fill:#F3F8FA;" points="353.984,325.861 291.026,294.382 383.653,248.068 446.612,279.547 								"/>
								<polygon style="fill:#A1B3BA;" points="446.631,288.173 353.966,334.515 353.966,325.869 446.631,279.527 								"/>
							</g>
							<path style="opacity:0.04;" d="M300.118,293.556c0,0-2.582,1.722,0,2.87s50.37,27.007,53.848,27.356s8.106-1.966,8.106-1.966
								l84.559-42.289l-5.101-2.521L300.118,293.556z"/>
							<g>
								<g>
									<g>
										<path style="fill:#D3DEE3;" d="M299.966,283.947c-2.085,1.097-2.083,4.359-1.858,6.351
											c0.657,5.803,8.309,7.834,12.905,10.132c6.15,3.075,12.299,6.15,18.448,9.224c7.484,3.742,14.969,7.484,22.454,11.227
											v-58.998L299.966,283.947z"/>
										<path style="fill:#FCFCFC;" d="M351.915,261.883v58.998l0.683,0.342c1.581,0.791,3.443,0.791,5.024,0l1.091-0.546v-61.682
											L351.915,261.883z"/>
										<path style="fill:#D3DEE3;" d="M440.304,269.085l-52.718-20.219c-1.581-0.791-3.443-0.791-5.024,0l-23.848,10.129v61.682
											c5.221-2.61,10.441-5.22,15.662-7.83c10.844-5.422,21.689-10.844,32.533-16.265c9.267-4.633,18.534-9.266,27.802-13.9
											c2.446-1.223,5.694-2.091,6.8-4.883C442.312,275.774,442.904,270.145,440.304,269.085z"/>
									</g>
									<g>
										<path style="fill:#FFFFFF;" d="M352.598,315.015l-52.576-26.288c-1.978-0.989-1.978-3.812,0-4.802l82.539-41.267
											c1.581-0.791,3.443-0.791,5.024,0l52.576,26.288c1.978,0.989,1.978,3.813,0,4.802l-82.539,41.267
											C356.041,315.806,354.18,315.806,352.598,315.015z"/>
									</g>
								</g>
								<path style="fill:#8EC3DE;" d="M435.235,277.997c-0.011-2.794-4.094-4.553-4.438-4.695l-51.299-25.856l0.008-0.004
									c0,0-2.37-1.338-3.532-1.827c-0.286-0.12-0.609-0.107-0.886,0.032l-71.9,35.95c-0.164,0.082-0.289,0.224-0.343,0.398
									c-0.046,0.146-0.068,0.332-0.001,0.529c0,0,0.788-0.287,1.805,0.053l53.898,27.132l-0.017,0.009
									c3.621,1.7,3.214,5.062,3.214,5.062s-0.471,1.69,0.305,1.552c0.776-0.138,72.547-36.163,72.547-36.163
									s0.711-0.517,0.656-2.18L435.235,277.997z"/>
							</g>
						</g>
						<g>
							<path style="opacity:0.08;" d="M373.82,250.38c0,0,0.952,2.478,5.017,4.534c4.065,2.057,15.399,7.7,17.886,7.269
								c2.487-0.43,14.047-5.281,14.252-6.504c0.205-1.223-1.1-1.913-1.1-1.913L373.82,250.38z"/>
							<g>
								<path style="fill:#FFFFFF;" d="M373.82,250.38c-1.211-1.006-0.976-2.937,0.436-3.633c2.532-1.249,7.303-4.727,14.028-4.977
									c9.345-0.346,21.861,8.733,22.856,11.598c0.812,2.339-12.111,8.435-16.065,7.499
									C391.944,260.127,378.517,254.282,373.82,250.38z"/>
								<path style="opacity:0.02;" d="M373.831,247.932c0.053-0.023,1.091,1.44,1.232,1.57c0.562,0.514,1.285,0.848,1.954,1.195
									c1.05,0.543,2.106,1.075,3.163,1.604c2.816,1.409,5.645,2.796,8.496,4.135c1.223,0.575,2.451,1.143,3.692,1.678
									c0.716,0.309,1.463,0.679,2.228,0.851c0.055,0.012,0.11,0.025,0.166,0.031c1.674,0.176,5.93-0.35,7.078-0.876
									c1.318-0.604,2.597-1.314,3.864-2.017c0.823-0.457,1.641-0.925,2.439-1.425c0.61-0.382,1.872-0.981,1.994-1.751
									c0.034-0.215,0.116-0.362,0.263-0.117c0.625,1.041-0.229,1.941-1.048,2.59c-2.322,1.84-5.24,2.857-7.99,3.866
									c-2.686,0.985-5.854,1.819-8.561,0.43c-2.988-1.533-6.114-2.81-9.164-4.214c-3.485-1.604-7.178-2.992-9.839-5.882
									c-0.15-0.163-0.299-0.335-0.387-0.538C373.247,248.68,373.435,248.115,373.831,247.932z"/>
							</g>
						</g>
						<g>
							<path style="opacity:0.08;" d="M400.602,263.929c0,0,0.952,2.478,5.017,4.534c4.065,2.056,15.4,7.7,17.886,7.269
								c2.487-0.43,14.047-5.281,14.252-6.504c0.205-1.223-1.1-1.913-1.1-1.913L400.602,263.929z"/>
							<g>
								<path style="fill:#FFFFFF;" d="M400.602,263.929c-1.211-1.006-0.976-2.937,0.436-3.633
									c2.533-1.249,7.304-4.727,14.028-4.977c9.345-0.346,21.861,8.733,22.856,11.598c0.812,2.339-12.111,8.435-16.065,7.499
									C418.726,273.676,405.298,267.831,400.602,263.929z"/>
								<path style="opacity:0.02;" d="M400.613,261.481c0.053-0.023,1.091,1.44,1.232,1.57c0.562,0.514,1.285,0.848,1.955,1.195
									c1.05,0.543,2.106,1.075,3.163,1.604c2.816,1.409,5.645,2.796,8.496,4.135c1.224,0.575,2.451,1.143,3.692,1.678
									c0.716,0.309,1.463,0.679,2.228,0.851c0.055,0.012,0.11,0.025,0.166,0.031c1.674,0.176,5.93-0.35,7.078-0.876
									c1.318-0.604,2.597-1.314,3.864-2.017c0.823-0.457,1.641-0.925,2.439-1.425c0.609-0.382,1.872-0.981,1.994-1.751
									c0.034-0.215,0.116-0.362,0.263-0.117c0.625,1.041-0.229,1.941-1.048,2.59c-2.322,1.84-5.24,2.857-7.99,3.866
									c-2.686,0.985-5.854,1.819-8.561,0.43c-2.988-1.534-6.114-2.81-9.164-4.214c-3.485-1.604-7.179-2.992-9.839-5.883
									c-0.151-0.163-0.299-0.334-0.387-0.538C400.029,262.23,400.217,261.665,400.613,261.481z"/>
							</g>
						</g>
					</g>
					<path style="opacity:0.08;" d="M304.518,281.266c0,0-1.052,0.287-1.267,0.454c-0.215,0.167-0.383,0.646-0.215,0.622
						c0.167-0.024,0.98-0.311,1.363-0.215c0.383,0.096,19.488,9.541,19.488,9.541l19.991,10.019l16.236,8.058
						c0,0,2.439,1.53,2.343,4.974c0,0-0.574,0.933-0.43,1.1c0.143,0.167,0.526,0.081,0.933-0.211l70.398-35.538
						c0,0,1.722-1.05,0.383-3.92c0,0-64.712,34.719-69.346,34.337C362.676,310.344,304.518,281.266,304.518,281.266z"/>
				</g>
				<g>
					<path style="opacity:0.08;" d="M489.321,247.658c-4.25,1.93-3.441,4.133-3.063,4.803c-1.182,1.258-2.205,2.537-3.064,3.734
						c-0.365-0.17-0.755-0.303-1.158-0.412c0.381-1.938,0.774-4.05,1.058-5.86c0.297-0.271,0.592-0.546,0.863-0.809
						c0.977,0.17,2.108,0.151,2.493-0.799c0.386-0.951-0.249-2.28-1.155-2.649c-1.46-0.594-3.599-0.46-5.063,0.065
						c-1.442,0.517-1.956,2.233-0.628,3.035c0.616,0.372,1.379,0.419,2.024,0.368c-0.071,0.977-0.208,2.131-0.466,2.496
						c0,0,0.563-0.48,1.262-1.103c-0.268,1.629-0.605,3.436-0.936,5.122c-0.586-0.114-1.18-0.156-1.749-0.128
						c-0.613-2.031-1.237-3.576-1.754-4.682c0.886-0.611,1.09-2.221-1.61-4.003c0,0-2.363-1.402-5.241-0.702
						c-2.878,0.7-4.34,1.74-5.505,1.115c0,0,2.682,2.798,4.457,3.026c1.775,0.228,3.089-0.795,3.897-0.292
						c0.749,0.467,2.362,1.305,3.47,1.07c0.498,1.068,1.105,2.561,1.704,4.516c-0.248,0.037-0.487,0.09-0.714,0.16
						c-0.39,0.121-0.696,0.29-0.946,0.483l-0.014-0.008c-0.031,0.025-0.059,0.055-0.09,0.08c-0.022,0.019-0.043,0.037-0.064,0.057
						c-3.034,2.593-3.978,8.372-4.227,12.913c-2.373,1.619-3.892,3.001-3.892,3.001l0.003,0.001
						c-0.287,0.271-0.355,0.633-0.144,1.059c0.476,0.959,2.206,1.923,4.099,2.358c0.321,0.074,0.645,0.136,0.97,0.177
						c0.852,0.106,1.576,0.071,2.117-0.072l0.002,0.001c0,0,3.306-0.905,6.927-2.29c1.056-2.539,2.273-6.015,2.684-9.298
						c0.287-2.298,0.18-4.501-0.663-6.221c-0.011-0.025-0.023-0.051-0.036-0.077c-0.018-0.036-0.032-0.074-0.051-0.11l-0.016,0.001
						c-0.153-0.276-0.367-0.552-0.677-0.818c-0.217-0.186-0.467-0.352-0.732-0.506c0.841-1.167,1.84-2.411,2.991-3.633
						c7.811,4.277,10.141-9.228,10.141-9.228C496.633,244.758,494.401,245.352,489.321,247.658z"/>
					<g>
						<g>
							<g>
								<path style="fill:#FFFFFF;" d="M476.996,256.334l-3.899,1.122l-3.899-1.122c-4.54,5.471-0.348,19.798-0.348,19.798l0.003,0
									c0.154,0.499,0.548,0.977,1.189,1.363c1.687,1.016,4.422,1.016,6.109,0c0.641-0.386,1.035-0.864,1.189-1.363l0.003,0
									C477.344,276.131,481.536,261.804,476.996,256.334z"/>
								<g>
									<path style="fill:#E3E3E3;" d="M476.152,255.674c1.687,0.934,1.687,2.447,0,3.381c-1.687,0.934-4.422,0.934-6.109,0
										c-1.687-0.934-1.687-2.447,0-3.381C471.73,254.74,474.465,254.74,476.152,255.674z"/>
								</g>
								<g>
									<path style="fill:#5E5E5E;" d="M475.723,255.911c1.45,0.802,1.45,2.104,0,2.906c-1.45,0.802-3.801,0.802-5.251,0
										c-1.45-0.802-1.45-2.104,0-2.906C471.922,255.109,474.273,255.109,475.723,255.911z"/>
								</g>
							</g>
							<g style="opacity:0.05;">
								<g>
									<path d="M477.346,258.429c1.995,6.158-1.64,15.104-1.64,15.104l-0.003,0c-0.145,0.472-0.518,0.923-1.124,1.288
										c-1.594,0.96-3.612,1.609-5.206,0.649c-0.152-0.092-0.29-0.189-0.412-0.29c0.103,0.392,0.167,0.612,0.167,0.612l0.003,0
										c0.146,0.472,0.518,0.923,1.124,1.288c1.594,0.96,4.179,0.96,5.773,0c0.606-0.365,0.978-0.816,1.124-1.288l0.003,0
										C477.154,275.791,480.632,263.81,477.346,258.429z"/>
								</g>
							</g>
						</g>
						<g>
							<g>
								<path style="fill:#547A36;" d="M471.595,247.077c0,0,0.611,3.279,0.282,4.031c0,0,3.24-4.171,3.052-4.551
									C474.741,246.178,471.595,247.077,471.595,247.077z"/>
							</g>
							<g>
								<path style="fill:#6FA348;" d="M477.207,251.069c0,0-2.654-2.215,1.854-5.502c4.508-3.287,6.574-4.32,6.527-5.494
									C485.588,240.073,486.059,254.129,477.207,251.069z"/>
							</g>
							<g>
								<path style="fill:#6FA348;" d="M466.217,247.384c0,0-2.598-0.894-5.274,0.374c-2.677,1.268-3.898,2.583-5.165,2.207
									c0,0,3.193,2.197,4.978,2.061c1.784-0.136,2.865-1.404,3.757-1.075c0.892,0.329,2.865,0.892,3.851,0.235
									C469.349,250.528,469.519,248.7,466.217,247.384z"/>
							</g>
							<g>
								<path style="fill:#6FA348;" d="M473.085,248.054c0,0-1.851,1.082-3.314,0.566c-1.463-0.516-1.307-2.301,0-3.099
									c1.327-0.81,3.395-1.375,4.944-1.088c0.962,0.178,1.852,1.352,1.667,2.361C476.128,248.18,474.132,248.134,473.085,248.054z
									"/>
							</g>
							<g>
								<path style="fill:#6FA348;" d="M473.575,255.29c-0.029-3.309-0.123-7.2-0.387-9.242l-0.559,0.072
									c0.261,2.015,0.354,5.868,0.382,9.156c0.011,1.311,0.013,2.532,0.01,3.511c0.068,0.153,0.135,0.308,0.203,0.466
									c0.105-0.328,0.225-0.688,0.362-1.075C473.587,257.325,473.584,256.337,473.575,255.29z"/>
								<path style="fill:#6FA348;" d="M481.069,245.697c-3.021,3.021-5.075,6.702-6.4,9.735c-0.438,1.003-0.796,1.934-1.083,2.747
									c-0.136,0.387-0.257,0.747-0.362,1.075c0.018,0.043,0.037,0.086,0.055,0.129c0.102-0.002,0.203-0.007,0.304-0.013
									c0.066-0.004,0.133-0.009,0.199-0.014c0.326-1.012,0.797-2.324,1.439-3.785c1.302-2.963,3.309-6.538,6.246-9.476
									L481.069,245.697z"/>
								<path style="fill:#6FA348;" d="M473.022,258.788c-0.546-1.241-1.089-2.349-1.613-3.331
									c-2.316-4.342-4.253-6.231-4.362-6.336l-0.39,0.407c0.026,0.025,1.919,1.877,4.188,6.084
									c0.589,1.092,1.203,2.343,1.817,3.762c0.119,0.006,0.239,0.01,0.359,0.011c0.054,0,0.109,0,0.163,0
									c0.013-0.043,0.028-0.086,0.042-0.13C473.157,259.096,473.089,258.941,473.022,258.788z"/>
								<path style="fill:#E3E3E3;" d="M473.183,259.384c0.032,0,0.064,0,0.097-0.001c-0.018-0.043-0.037-0.086-0.055-0.129
									C473.21,259.297,473.196,259.341,473.183,259.384z"/>
							</g>
						</g>
					</g>
				</g>
			</g>
		</g>
	</g>
	<g>
		<polygon style="opacity:0.08;" points="253.239,399.391 285.149,396.331 304.518,387.723 274.389,370.959 		"/>
		<path style="opacity:0.08;" d="M283.682,402.267l6.363-1.394l-3.166-1.412c0,0-0.435-1.293,0.688-1.581
			c0,0,50.422-12.51,50.423-12.51l-28.021,14.02l-11.314,5.661l-5.434-2.762l-7.587,1.662
			C286.314,404.661,282.774,401.608,283.682,402.267z"/>
		<g>
			<g>
				<g>
					<path style="fill:#396783;" d="M184.191,348.827c2.051,1.026,2.051,2.688,0,3.714c-2.051,1.025-5.377,1.025-7.428,0
						c-2.051-1.026-2.051-2.688,0-3.714C178.815,347.802,182.14,347.802,184.191,348.827z"/>
					<polygon style="fill:#396783;" points="180.478,349.181 175.225,349.181 175.225,350.684 185.73,350.684 185.73,349.181 					
						"/>
					<path style="fill:#4F8FB6;" d="M184.191,347.324c2.051,1.026,2.051,2.688,0,3.714c-2.051,1.026-5.377,1.026-7.428,0
						c-2.051-1.026-2.051-2.688,0-3.714C178.815,346.299,182.14,346.299,184.191,347.324z"/>
				</g>
				<g>
					<path style="fill:#396783;" d="M181.293,348.948c0.451,0.225,0.451,0.591,0,0.816c-0.451,0.225-1.181,0.225-1.632,0
						c-0.451-0.225-0.451-0.59,0-0.816C180.112,348.723,180.843,348.723,181.293,348.948z"/>
					<polygon style="fill:#396783;" points="180.478,332.763 179.324,332.763 179.324,349.356 181.631,349.356 181.631,332.763 
											"/>
					<path style="fill:#FFFFFF;" d="M181.293,332.355c0.451,0.225,0.451,0.591,0,0.816c-0.451,0.225-1.181,0.225-1.632,0
						c-0.451-0.225-0.451-0.59,0-0.816C180.112,332.13,180.843,332.13,181.293,332.355z"/>
				</g>
				<g>
					<path style="fill:#467EA2;" d="M185.492,340.075L185.492,340.075v-55.614l-3.717,0.348l-0.47,52.502
						c-3.204-0.639-5.432,0.691-5.432,0.691l8.058,3.914C183.93,341.916,185.446,341.139,185.492,340.075z"/>
					<polygon style="fill:#35607A;" points="183.93,341.916 175.872,338.002 175.872,282.389 183.93,286.302 					"/>
					<path style="fill:#4F8FB6;" d="M175.872,282.389c0,0,3.26-1.957,7.572,0c4.311,1.957,0.487,3.913,0.487,3.913L175.872,282.389z
						"/>
				</g>
			</g>
			<g>
				<g>
					<g>
						<polygon style="fill:#D3DEE3;" points="253.239,399.387 180.478,363.416 180.478,342.531 253.239,378.502 						"/>
					</g>
					<g>
						<polygon style="fill:#F0F5F7;" points="253.238,378.508 180.478,342.542 206.62,329.604 279.38,365.57 						"/>
					</g>
					<g>
						<g>
							<polygon style="fill:#A1B3BA;" points="279.381,386.451 253.239,399.391 253.239,378.507 279.381,365.567 							"/>
						</g>
					</g>
				</g>
			</g>
			<g>
				<g>
					<path style="fill:#396783;" d="M286.061,402.372c2.051,1.026,2.051,2.688,0,3.714c-2.051,1.026-5.377,1.026-7.428,0
						c-2.051-1.025-2.051-2.688,0-3.714C280.685,401.346,284.01,401.346,286.061,402.372z"/>
					<polygon style="fill:#396783;" points="282.348,402.726 277.095,402.726 277.095,404.228 287.6,404.228 287.6,402.726 					"/>
					<path style="fill:#4F8FB6;" d="M286.061,400.869c2.051,1.026,2.051,2.688,0,3.714c-2.051,1.025-5.377,1.025-7.428,0
						c-2.051-1.026-2.051-2.688,0-3.714C280.685,399.843,284.01,399.843,286.061,400.869z"/>
				</g>
				<g>
					<path style="fill:#396783;" d="M283.163,402.492c0.451,0.225,0.451,0.59,0,0.816s-1.181,0.225-1.632,0s-0.451-0.59,0-0.816
						C281.982,402.267,282.713,402.267,283.163,402.492z"/>
					<polygon style="fill:#396783;" points="282.348,386.307 281.194,386.307 281.194,402.9 283.501,402.9 283.501,386.307 					"/>
					<path style="fill:#FFFFFF;" d="M283.163,385.899c0.451,0.225,0.451,0.591,0,0.816c-0.451,0.225-1.181,0.225-1.632,0
						c-0.451-0.225-0.451-0.59,0-0.816C281.982,385.674,282.713,385.674,283.163,385.899z"/>
				</g>
				<g>
					<path style="fill:#467EA2;" d="M287.362,393.619L287.362,393.619v-55.614l-3.717,0.348l-0.47,52.502
						c-3.204-0.639-5.432,0.691-5.432,0.691l8.058,3.914C285.8,395.46,287.316,394.683,287.362,393.619z"/>
					<polygon style="fill:#35607A;" points="285.8,395.46 277.742,391.547 277.742,335.933 285.8,339.846 					"/>
					<path style="fill:#4F8FB6;" d="M277.742,335.933c0,0,3.26-1.957,7.572,0c4.311,1.957,0.487,3.913,0.487,3.913L277.742,335.933z
						"/>
				</g>
			</g>
			<polygon style="opacity:0.08;" points="238.344,364.743 248.994,365.567 255.737,362.764 275.57,367.455 279.381,365.567 
				206.62,329.604 228.907,344.681 222.466,348.917 			"/>
			<g>
				<g>
					<g>
						<g>
							<polygon style="fill:#35607A;" points="238.344,364.74 215.683,353.622 215.683,352.241 238.344,363.359 							"/>
						</g>
						<g>
							<polygon style="fill:#4F8FB6;" points="238.344,363.362 215.683,352.248 222.466,348.917 245.127,360.032 							"/>
						</g>
						<g>
							<polygon style="fill:#467EA2;" points="245.127,361.411 238.344,364.743 238.344,363.361 245.127,360.03 							"/>
						</g>
					</g>
				</g>
				<g>
					<polygon style="fill:#467EA2;" points="234.859,358.238 233.612,359.025 225.951,336.397 227.198,335.773 234.859,339.605 
											"/>
					<polygon style="fill:#35607A;" points="233.612,359.025 225.951,355.194 225.951,336.397 233.612,340.228 					"/>
				</g>
				<g>
					<polygon style="fill:#4F8FB6;" points="266.31,363.247 263.862,364.743 199.397,329.783 196.949,291.294 199.397,289.798 
						266.31,323.262 					"/>
					<polygon style="fill:#35607A;" points="263.862,364.743 196.949,331.279 196.949,291.294 263.862,324.758 					"/>
					<polygon style="fill:#467EA2;" points="263.862,324.758 266.31,323.262 266.31,363.247 263.862,364.743 					"/>
				</g>
			</g>
		</g>
		<polygon style="opacity:0.08;" points="187.755,338.941 213.922,339.846 200.076,332.843 		"/>
	</g>
	<g>
		<g>
			<polygon style="fill:#B88F86;" points="461.428,219.456 398.914,188.192 398.914,153.324 461.428,184.588 			"/>
			<g>
				<polygon style="fill:#876962;" points="402.008,156.935 400.977,156.419 400.977,187.161 459.365,216.361 459.365,215.295 
					402.008,186.611 				"/>
				<polygon style="fill:#96CCFF;" points="402.008,156.935 402.008,186.611 459.365,215.295 459.365,185.62 				"/>
			</g>
			<polygon style="fill:#876962;" points="461.428,184.588 463.492,183.694 463.492,218.562 461.428,219.456 			"/>
			<polygon style="fill:#C2968C;" points="398.914,153.324 400.977,152.43 463.492,183.694 461.428,184.588 			"/>
		</g>
		<path style="fill:#5EB2FF;" d="M402.008,186.611c0,0,11.92-4.462,28.163-1.963c16.242,2.499,29.194,0.972,29.194,0.972v29.675
			L402.008,186.611z"/>
		<polygon style="opacity:0.08;" points="398.914,188.192 409.75,195 464.125,222 464.617,188.875 463.492,183.694 461.428,184.588 
			461.428,219.456 		"/>
	</g>
	<g>
		<g>
			<polygon style="fill:#B88F86;" points="374.563,235.104 305.103,200.752 305.103,79.593 374.563,113.945 			"/>
			<g>
				<polygon style="fill:#82655E;" points="310.608,85.099 307.856,83.722 307.856,199.376 330.061,210.096 330.061,207.537 
					310.608,198.194 				"/>
				<polygon style="fill:#9E7B73;" points="310.608,85.099 310.608,198.194 330.061,207.537 330.061,94.442 				"/>
			</g>
			<g>
				<polygon style="fill:#82655E;" points="335.658,97.241 332.905,95.864 332.905,211.518 371.81,230.975 371.81,228.416 
					335.658,210.336 				"/>
				<polygon style="fill:#A8D9F9;" points="335.658,97.241 335.658,210.336 371.81,228.416 371.81,115.321 				"/>
			</g>
			<polygon style="fill:#D1B0A3;" points="305.103,79.593 291.51,72.99 291.51,193.741 305.103,200.752 			"/>
			<polygon style="fill:#B3968B;" points="298.306,76.291 298.306,189.699 291.51,193.741 291.51,72.99 			"/>
			<polygon style="fill:#FFFAF2;" points="298.306,189.699 291.51,193.741 283.93,198.123 299.927,204.938 305.103,200.752 
				305.103,176.243 298.306,179.902 			"/>
		</g>
		<polygon style="opacity:0.1;" points="291.51,94.415 294.516,191.953 305.103,193.741 305.103,79.593 291.51,72.99 		"/>
		<polygon style="fill:#93CAED;" points="342.672,100.749 371.81,228.416 335.658,210.336 335.658,97.241 		"/>
		<polygon style="opacity:0.1;" points="310.608,85.099 330.061,207.537 310.608,198.194 		"/>
	</g>
	<g>
		<polygon style="fill:#F0C9BB;" points="69.311,245.447 63.5,242.602 130.494,209.028 135.98,211.819 		"/>
		<polygon style="fill:#B89B8F;" points="135.98,211.819 135.98,149.167 130.494,147.619 130.494,209.028 		"/>
		<g>
			<g>
				<g>
					<g>
						<polygon style="fill:#B88F86;" points="63.5,242.699 130.494,209.028 130.494,147.619 63.5,181.29 						"/>
						<g>
							<polygon style="fill:#876962;" points="126.769,151.344 128.631,150.413 128.631,208.097 98.585,223.214 98.585,221.483 
								126.769,207.297 							"/>
							<polygon style="fill:#D6EFFF;" points="126.769,151.344 126.769,207.297 98.585,221.483 98.585,165.53 							"/>
						</g>
						<g>
							<polygon style="fill:#876962;" points="94.798,167.424 96.661,166.493 96.661,224.177 65.363,239.905 65.363,238.174 
								94.798,223.377 							"/>
							<polygon style="fill:#D6EFFF;" points="94.798,167.424 94.798,223.377 65.363,238.174 65.363,182.221 							"/>
						</g>
					</g>
					<polygon style="opacity:0.1;" points="94.798,167.424 96.661,172.432 96.661,166.493 					"/>
					<polygon style="opacity:0.1;" points="126.769,151.344 128.631,157.319 128.631,150.413 					"/>
					<polygon style="opacity:0.1;" points="98.585,221.483 102.162,221.415 98.585,223.214 					"/>
					<polygon style="opacity:0.1;" points="65.363,239.905 65.363,238.174 70.154,237.497 					"/>
					<polygon style="opacity:0.25;fill:#FFFFFF;" points="89.833,169.92 65.363,225.165 65.363,182.221 					"/>
					<polygon style="opacity:0.25;fill:#FFFFFF;" points="123.056,153.25 98.585,208.495 98.585,165.551 					"/>
				</g>
			</g>
			<polygon style="fill:#D1B0A3;" points="69.311,245.447 69.311,174.329 55.333,186.413 60.864,243.667 			"/>
			<polygon style="fill:#D1B0A3;" points="135.98,149.167 64.333,185.667 67.758,174.329 126.062,144.515 			"/>
		</g>
	</g>
</g>
</svg>
